# xmcd
#
# Track frame offsets: 
#        150
#        13480
#        27425
#        40018
#        53968
#        68375
#        82745
#        98153
#        111485
#        147993
#        159975
#        174998
#        186668
#        201235
#        216690
#        230385
#
# Disc length: 3279 seconds
#
# Revision: 3
# Processed by: cddbd v1.4PL0 Copyright (c) Steve Scherf et al.
# Submitted via: ExactAudioCopy v0.90b4
#
DISCID=e30ccd10
DTITLE=Frank Sinatra - 16 Most Requested Songs
DYEAR=1995
DGENRE=Vocal
TTITLE0=All Or Nothing At All
TTITLE1=You'll Never Know
TTITLE2=Saturday Night (Is The Loneliest Night In The Week)
TTITLE3=Dream (When You're Feeling Blue)
TTITLE4=Put Your Dreams Away (For Another Day)
TTITLE5=Day By Day
TTITLE6=Nancy (With The Laughing Face)
TTITLE7=Oh! What It Seemed To Be
TTITLE8=Soliloquy (Parts 1 and 2)
TTITLE9=Five Minutes More
TTITLE10=The Things We Did Last Summer
TTITLE11=The Coffee Song (They've Got An Awful Lot Of Coffee In Brazil
TTITLE11=)
TTITLE12=Time After Time
TTITLE13=Mam'selle
TTITLE14=Fools Rush In
TTITLE15=Birth Of The Blues
EXTD=
EXTT0=
EXTT1=
EXTT2=
EXTT3=
EXTT4=
EXTT5=
EXTT6=
EXTT7=
EXTT8=
EXTT9=
EXTT10=
EXTT11=
EXTT12=
EXTT13=
EXTT14=
EXTT15=
PLAYORDER=
